PathFileType	4	(X/Y/Z)	pose_F01_0-88.trc
DataRate	CameraRate	NumFrames	NumMarkers	Units	OrigDataRate	OrigDataStartFrame	OrigNumFrames
30	30	11	21	m	30	12	88
Frame#	Time	CHip			RHip			RKnee			RAnkle			RBigToe			RSmallToe			RHeel			LHip			LKnee			LAnkle			LBigToe			LSmallToe			LHeel			Neck			Nose			RShoulder			RElbow			RWrist			LShoulder			LElbow			LWrist			
		X1	Y1	Z1	X2	Y2	Z2	X3	Y3	Z3	X4	Y4	Z4	X5	Y5	Z5	X6	Y6	Z6	X7	Y7	Z7	X8	Y8	Z8	X9	Y9	Z9	X10	Y10	Z10	X11	Y11	Z11	X12	Y12	Z12	X13	Y13	Z13	X14	Y14	Z14	X15	Y15	Z15	X16	Y16	Z16	X17	Y17	Z17	X18	Y18	Z18	X19	Y19	Z19	X20	Y20	Z20	X21	Y21	Z21	
12	0.4	-0.25086492359100876	1.876421932339549	-0.5296017340185482	-0.2671979015300946	1.876338620683395	-0.4681706355663709	-0.2711814819624573	1.724804655463949	-0.41944645840661493													-0.23215207148602007	1.882108075823152	-0.5968819893614421	-0.22983717211894186	1.7282847037345925	-0.5674886525139279	-0.22201336710941003	1.5822226867796356	-0.5612227359420535	-0.22175501006219547	1.5488945848727083	-0.6448713732276019	-0.2118698046678823	1.5614751213023692	-0.6517581502274395	-0.22146068874414476	1.5649094370201682	-0.529409274135845	-0.24408966974857882	2.0529689247081517	-0.5303796020588223	-0.2555743415352038	2.1276585810575854	-0.5849911947292417	-0.26660234877889505	2.0509447794021893	-0.442120375282282	-0.273186531446548	1.9573465465682531	-0.406335972474555	-0.2840990893106505	1.8795487880297925	-0.3967028058510443	-0.21783549539811145	2.0550896949915125	-0.6238706776802257	-1.4117584965585113	1.8720117411797816	0.620501198910058	-0.20052335901034307	1.9006459512841185	-0.6763879565490255
13	0.43333333333333335	-0.25085100953048906	1.875713740540904	-0.5296487143259244	-0.2670838258562323	1.8743815316309511	-0.46790789191328336	-0.27118154948184253	1.7247647742510095	-0.41944852493958995													-0.23324830109400146	1.8803452207307383	-0.6000501035021131	-0.22771986271145697	1.7276257067631482	-0.5696434127065355	-0.22049382724913016	1.5821401594406113	-0.5629090596969186	-0.2247623491724881	1.5480170789723438	-0.6462415149727754	-0.21433370982777275	1.5601868408019373	-0.6490693810988148	-0.21975819512746822	1.5664061169102137	-0.5320492406611338	-0.24507942924857112	2.053160566756752	-0.5333268264146966	-0.25556473544055125	2.1276181464612764	-0.5849964845389375	-0.26851517665684743	2.0508875704827414	-0.4401167930673753	-0.2729035562503911	1.9601112926946465	-0.40640518140298126	-0.2837370547005045	1.8808923108008833	-0.3966621598879135	-0.21990279369549803	2.055148969534304	-0.6217682267412531	-1.4117584965585113	1.8720117411797816	0.620501198910058	-0.20052335901034307	1.9006459512841185	-0.6763879565490255
14	0.4666666666666667	-0.251023194751118	1.874684694827598	-0.5294970843601934	-0.2662410029694086	1.8734307670763846	-0.4646500032872873	-0.2711816170012278	1.7247248930380703	-0.4194505914725649													-0.23325330068532504	1.8805237687132978	-0.6000377686444608	-0.23108621710338553	1.7312101728830898	-0.5704835181638784	-0.22062457896068027	1.5831553099555775	-0.5624609363403995	-0.2263124956147281	1.5497671457462503	-0.6405711403427446	-0.21418736789507464	1.5620235418697785	-0.6495556617514696	-0.2216700437200776	1.5661716361641869	-0.5294090827639326	-0.2441521683096107	2.052992064799177	-0.5303732003911499	-0.25555302140712916	2.12640177834089	-0.5844547482418265	-0.2666268966835631	2.050962664205115	-0.4421611191446493	-0.2730980324447025	1.9602940681490408	-0.40678543215142837	-0.2831076022960177	1.8826556067634703	-0.39413914170288966	-0.2199496887810395	2.0551246379090906	-0.6217573110826289	-1.4117584965585113	1.8720117411797816	0.620501198910058	-0.20052335901034307	1.9006459512841185	-0.6763879565490255
15	0.5	-0.2508705142167376	1.8756565063284396	-0.5297812790883014	-0.2670793835533659	1.874154291928751	-0.4680649592416639	-0.27041172199416597	1.7264336639293283	-0.4206065187237784													-0.2340300354088723	1.8815717011492357	-0.6034099730934239	-0.22776732487318066	1.7279804382103277	-0.5697067435901714	-0.22022387947021527	1.5832707529890542	-0.5634033729519765	-0.22628531328192317	1.5509853138201881	-0.6492585670289821	-0.21538959327353996	1.563205712935266	-0.6528875090060628	-0.221965595804994	1.569710442781975	-0.5304713733291784	-0.2441416279761426	2.05298583526164	-0.5303466460500055	-0.2555741230551122	2.1263139860851905	-0.5844657493335919	-0.26846380775587864	2.0508426620555995	-0.4401050019809647	-0.2730739790714378	1.9559377962799285	-0.40600460945105876	-0.28516807874745737	1.8815972894942878	-0.40035474477117994	-0.2199720392363214	2.0560673918597985	-0.6221428216438833	-1.4117584965585113	1.8720117411797816	0.620501198910058	-0.20052335901034307	1.9006459512841185	-0.6763879565490255
16	0.5333333333333333	-0.2508207623963101	1.8790345195717246	-0.5301144311524548	-0.2671090964066064	1.8785755558999997	-0.4686552285128719	-0.2696418269871041	1.7281424348205863	-0.42176244597499196													-0.23414896036904312	1.8833294173109154	-0.6036117784879158	-0.2310017341422422	1.733723742111778	-0.5708357842747703	-0.22043490859803744	1.5847760365193366	-0.5630022704860025	-0.22265331262260804	1.5484184019918812	-0.6484176318509522	-0.21200965630431778	1.5620147351797158	-0.6517659422240907	-0.22225403740727795	1.5688806172129746	-0.529432109583159	-0.24506486906383781	2.053167000583678	-0.5333822069281756	-0.25556511614525423	2.126376935228497	-0.5844947836965452	-0.26845982251073935	2.05086224650546	-0.4401014023691079	-0.2729789779034747	1.9572011249797656	-0.4060609117912624	-0.28421140672136574	1.882328752222219	-0.39730939182625125	-0.22077699369760276	2.055268688471688	-0.6247821061544756	-1.4117584965585113	1.8720117411797816	0.620501198910058	-0.20052335901034307	1.9006459512841185	-0.6763879565490255
17	0.5666666666666667	-0.2511913481443172	1.8807492134422568	-0.5304574235714907	-0.2673927984030882	1.8787246537911886	-0.4687861963401866	-0.26749919994512644	1.7265007831985522	-0.4237753630540838													-0.2354154566716139	1.884704229044478	-0.6069696036172297	-0.22919437948408453	1.7323889762437434	-0.5726774389899506	-0.22037202000072442	1.5812791508184303	-0.5628055244568134	-0.22405492393494578	1.5494051194047074	-0.6426840370309457	-0.21406733018747384	1.5615371076904407	-0.6495236314671924	-0.22214915559595916	1.5681514739612272	-0.5295722867057265	-0.24505989106158133	2.0531391580766787	-0.5333873949671806	-0.25555926048003325	2.125052166611945	-0.5839356772608959	-0.26661794343207096	2.0509281532694006	-0.4422012768136153	-0.2730517079727963	1.9585165130668054	-0.4063987231440953	-0.284145468718082	1.8823155919770707	-0.39736338511223596	-0.22067314365250323	2.056430252646609	-0.6246099228070318	-1.4117584965585113	1.8720117411797816	0.620501198910058	-0.20052335901034307	1.9006459512841185	-0.6763879565490255
18	0.6	-0.25090280110958535	1.8762437115391437	-0.5298576172218933	-0.2672315859786135	1.875297025159735	-0.4683169545659734	-0.26919710284496057	1.7241260402302565	-0.4216295272898742													-0.2351083316739567	1.8798705822683046	-0.606495511364978	-0.2288197234341601	1.7265328060443486	-0.5724191933616796	-0.21971000756890247	1.5833896960646456	-0.5593032691402053	-0.22281280702613357	1.5478860641904761	-0.6397670207138916	-0.2131213701141592	1.561379588947602	-0.6463684088329921	-0.22181314841910882	1.5670920636630215	-0.5293353255502881	-0.2450569588430904	2.0531398469292292	-0.5334185420350364	-0.2555680979281	2.1250927887640048	-0.5839531502474897	-0.268486695524103	2.0508915058328214	-0.4401045978816732	-0.2730893366579266	1.9600373553123267	-0.4068145783544545	-0.2853101390486256	1.8836955607506138	-0.40101469281900487	-0.22074437119915233	2.0554286889757205	-0.6248652702902018	-1.4117584965585113	1.8720117411797816	0.620501198910058	-0.20052335901034307	1.9006459512841185	-0.6763879565490255
19	0.6333333333333333	-0.25097792319535284	1.8747108166553061	-0.5296768427097027	-0.2671888927661374	1.8730027675435483	-0.4679493415189058	-0.2693005078825962	1.7226872446144237	-0.4212884644535987													-0.234151443743122	1.8804725298846152	-0.6033059930550931	-0.23087321150714576	1.7265377245513291	-0.5702366334382323	-0.2224016579431323	1.5810924273461218	-0.56076888453294	-0.2246551876586921	1.55061657409675	-0.6465414263727832	-0.2140554454859437	1.5615796615506512	-0.6496813267639634	-0.2238833997531283	1.5661184154756307	-0.5277431349804992	-0.2451040140257645	2.0531856325275437	-0.5334263115665073	-0.25555490405576986	2.125013297049964	-0.5839934996505961	-0.26955571601149864	2.051010166783351	-0.4432533445651428	-0.27315926000630875	1.9600540630821917	-0.4068394598346411	-0.28647860548521514	1.8817983026155032	-0.4037974967145833	-0.22079143716093477	2.0552679305896566	-0.624701144274339	-1.4117584965585113	1.8720117411797816	0.620501198910058	-0.20052335901034307	1.9006459512841185	-0.6763879565490255
20	0.6666666666666666	-0.250678773343794	1.8773786304277915	-0.5298736845359477	-0.2670578505596001	1.8749075831515227	-0.4679798049638586	-0.2672587632276985	1.7247687346797778	-0.42379175320887313													-0.23308527216327032	1.8819380217360249	-0.6002574752065503	-0.2286218834572393	1.7277700872952608	-0.5727843869566611	-0.22200340852649963	1.5817530824233608	-0.5616474990973106	-0.2250124630629759	1.5520944816391353	-0.6465608041286701	-0.21435964984931602	1.5627544479285966	-0.6496006805044027	-0.22155784951983531	1.5676025863314946	-0.5305061023433343	-0.24508938525004778	2.0531994104526703	-0.5334343349493976	-0.25557569031069843	2.125074579212375	-0.5839978778403476	-0.26951818292674623	2.0510296365081557	-0.44331353828141	-0.2748803929728607	1.9587821615540664	-0.4043558088907192	-0.28421338048404393	1.8834358769273452	-0.39775041792460925	-0.21984940657342603	2.056210784354759	-0.6216457730048486	-1.4117584965585113	1.8720117411797816	0.620501198910058	-0.20052335901034307	1.9006459512841185	-0.6763879565490255
21	0.7	-0.2509580957823623	1.877550368588626	-0.5299958001022754	-0.2671813567738891	1.875808998088723	-0.46829205112448385	-0.2683594451076643	1.7264832604638747	-0.4243361571524428													-0.23426594165722336	1.8817545622717449	-0.6034716065063308	-0.22981128125012382	1.7279669048877109	-0.5675490974148267	-0.22207110633049598	1.5824738070557802	-0.5612179194592503	-0.22404712964938653	1.5494117848505957	-0.6426928038995475	-0.2119656141176805	1.5618947967706898	-0.6517129197399041	-0.22372629703803798	1.5660620380128303	-0.5272926632987304	-0.24507893136761125	2.05315194285886	-0.5334526892205721	-0.2555702583464438	2.1263044068627894	-0.5845898326182459	-0.26940679042844073	2.05218705842132	-0.44317186258509894	-0.27478065794206136	1.959918670145272	-0.4044734780687422	-0.2851762128415497	1.8848408952356408	-0.4010390165757496	-0.22077121079042836	2.0553705480557634	-0.6247958056860563	-1.4117584965585113	1.8720117411797816	0.620501198910058	-0.20052335901034307	1.9006459512841185	-0.6763879565490255
22	0.7333333333333333	-0.2508585196073221	1.8791461647980654	-0.5301852629895197	-0.268219686084294	1.8754563334268386	-0.4714478094473172	-0.2694601269876301	1.7281977862479716	-0.42488056109601247													-0.23413776661733013	1.8832487473406572	-0.6036195432987814	-0.23044191409573392	1.729302197808816	-0.5709658571181865	-0.22217672194673058	1.5827390944920656	-0.5612293751146422	-0.22394665479205356	1.5489211893654784	-0.6427281800952485	-0.21397047940451244	1.5610768026119357	-0.6495264714407926	-0.22374157005845144	1.5685155937057587	-0.5279444453792936	-0.24500116979739817	2.054315450901312	-0.5333088635224881	-0.2554879392959677	2.1274742478795803	-0.5843856641207712	-0.26945502143582506	2.052201296839877	-0.4431939002456207	-0.27484910380971606	1.9614614424035943	-0.4048970528902061	-0.28508692897930066	1.8837913551342147	-0.4007562687083836	-0.21982629174102614	2.056203073127168	-0.6216839821852785	-1.4117584965585113	1.8720117411797816	0.620501198910058	-0.20052335901034307	1.9006459512841185	-0.6763879565490255
